<svg xmlns="http://www.w3.org/2000/svg" id="Capa_1" data-name="Capa 1" viewBox="0 0 340 99"><defs><style>      .cls-1 {        stroke-width: 0px;      }    </style></defs><g><path class="cls-1" d="m126.98,10.38c-.91-.43-1.84-.65-2.78-.65-1.17,0-2.25.28-3.22.84s-1.74,1.33-2.3,2.32c-.56.98-.84,2.06-.84,3.24s.28,2.25.84,3.24c.56.98,1.33,1.76,2.3,2.33.97.57,2.05.85,3.22.85.9,0,1.81-.2,2.72-.6s1.72-.95,2.42-1.65l2.14,2.38c-.99,1.01-2.15,1.81-3.47,2.4-1.32.59-2.65.88-4.01.88-1.82,0-3.49-.43-5.01-1.3-1.52-.87-2.71-2.04-3.57-3.53-.87-1.49-1.3-3.14-1.3-4.94s.44-3.45,1.33-4.93c.88-1.48,2.09-2.64,3.61-3.49s3.22-1.27,5.08-1.27c1.35,0,2.68.27,3.98.81,1.3.54,2.41,1.29,3.33,2.25l-2.11,2.65c-.67-.78-1.46-1.38-2.37-1.81Z"></path><path class="cls-1" d="m147.83,7.75c1.54.85,2.76,2.01,3.64,3.49.88,1.48,1.33,3.12,1.33,4.93s-.44,3.45-1.33,4.94c-.88,1.49-2.1,2.67-3.64,3.53-1.54.87-3.25,1.3-5.13,1.3s-3.59-.43-5.13-1.3c-1.54-.87-2.76-2.04-3.64-3.53-.88-1.49-1.33-3.14-1.33-4.94s.44-3.45,1.33-4.93c.88-1.48,2.1-2.64,3.64-3.49,1.54-.85,3.25-1.27,5.13-1.27s3.59.42,5.13,1.27Zm-8.3,2.83c-.99.57-1.78,1.35-2.36,2.33-.58.98-.87,2.07-.87,3.26s.29,2.28.88,3.28c.59.99,1.37,1.78,2.36,2.36.98.58,2.05.87,3.21.87s2.19-.29,3.17-.87c.97-.58,1.75-1.36,2.32-2.36.57-.99.85-2.08.85-3.28s-.28-2.28-.85-3.26c-.57-.98-1.34-1.76-2.32-2.33s-2.03-.85-3.17-.85-2.23.28-3.22.85Z"></path><path class="cls-1" d="m156,6.72h3.63v15.68h8.18v3.28h-11.81V6.72Z"></path><path class="cls-1" d="m170.65,6.72h13.89v3.17h-10.26v4.69h9.21v3.17h-9.21v4.77h10.59v3.17h-14.22V6.72Z"></path><path class="cls-1" d="m201.41,16.25h3.17v7.2c-.99.74-2.17,1.34-3.52,1.8-1.35.46-2.68.69-3.98.69-1.86,0-3.55-.43-5.08-1.3-1.53-.87-2.73-2.04-3.61-3.53-.88-1.49-1.33-3.14-1.33-4.94s.45-3.44,1.35-4.92,2.13-2.64,3.7-3.49c1.56-.86,3.29-1.29,5.19-1.29,1.35,0,2.69.24,4.01.73,1.32.49,2.45,1.16,3.41,2l-2.06,2.68c-.72-.69-1.56-1.22-2.5-1.6-.95-.38-1.9-.57-2.86-.57-1.19,0-2.29.28-3.29.85s-1.79,1.35-2.37,2.34c-.58.99-.87,2.08-.87,3.25s.29,2.28.88,3.28c.59.99,1.38,1.78,2.37,2.36.99.58,2.09.87,3.3.87.65,0,1.33-.1,2.04-.31.71-.21,1.39-.5,2.05-.88v-5.23Z"></path><path class="cls-1" d="m208.77,6.72h3.63v18.96h-3.63V6.72Z"></path><path class="cls-1" d="m230.8,7.75c1.54.85,2.76,2.01,3.64,3.49.88,1.48,1.33,3.12,1.33,4.93s-.44,3.45-1.33,4.94c-.88,1.49-2.1,2.67-3.64,3.53-1.54.87-3.25,1.3-5.13,1.3s-3.59-.43-5.13-1.3c-1.54-.87-2.76-2.04-3.64-3.53-.88-1.49-1.33-3.14-1.33-4.94s.44-3.45,1.33-4.93c.88-1.48,2.1-2.64,3.64-3.49,1.54-.85,3.25-1.27,5.13-1.27s3.59.42,5.13,1.27Zm-8.3,2.83c-.99.57-1.78,1.35-2.36,2.33-.58.98-.87,2.07-.87,3.26s.29,2.28.88,3.28c.59.99,1.37,1.78,2.36,2.36.98.58,2.05.87,3.21.87s2.19-.29,3.17-.87c.97-.58,1.75-1.36,2.32-2.36.57-.99.85-2.08.85-3.28s-.28-2.28-.85-3.26c-.57-.98-1.34-1.76-2.32-2.33s-2.03-.85-3.17-.85-2.23.28-3.22.85Z"></path><path class="cls-1" d="m128.59,40.42c1.5.8,2.67,1.93,3.52,3.37.85,1.44,1.27,3.08,1.27,4.9s-.43,3.45-1.29,4.89c-.86,1.43-2.04,2.56-3.56,3.37-1.52.81-3.24,1.22-5.17,1.22h-7.74v-18.96h7.88c1.9,0,3.59.4,5.09,1.21Zm-1.88,13.76c.93-.53,1.66-1.27,2.18-2.22.52-.95.79-2.03.79-3.24s-.27-2.3-.81-3.26c-.54-.97-1.29-1.71-2.23-2.25-.95-.53-2.01-.8-3.18-.8h-4.2v12.57h4.33c1.16,0,2.2-.27,3.13-.8Z"></path><path class="cls-1" d="m136.55,39.22h13.89v3.17h-10.26v4.69h9.21v3.17h-9.21v4.77h10.59v3.17h-14.22v-18.96Z"></path><path class="cls-1" d="m161.09,39.22h13.89v3.17h-10.26v4.69h9.21v3.17h-9.21v4.77h10.59v3.17h-14.22v-18.96Z"></path><path class="cls-1" d="m187.91,42.71c-1.02-.33-1.92-.49-2.69-.49-.87,0-1.55.16-2.06.49-.51.32-.76.78-.76,1.35,0,.52.18.96.53,1.31s.79.64,1.33.87c.53.23,1.26.47,2.18.74,1.28.38,2.33.76,3.16,1.14.82.38,1.52.94,2.1,1.68.58.74.87,1.72.87,2.92s-.31,2.16-.93,3.02-1.48,1.51-2.57,1.96c-1.09.45-2.34.68-3.75.68-1.48,0-2.93-.27-4.33-.83s-2.64-1.29-3.68-2.21l1.52-3.09c.96.88,2.03,1.58,3.22,2.08s2.3.76,3.33.76,1.81-.19,2.38-.58c.58-.39.87-.92.87-1.58,0-.54-.18-.99-.53-1.34-.35-.35-.8-.64-1.34-.85-.54-.22-1.28-.46-2.22-.73-1.28-.38-2.33-.75-3.14-1.11-.81-.36-1.51-.91-2.08-1.64-.58-.73-.87-1.69-.87-2.88,0-1.1.29-2.06.88-2.88.59-.82,1.42-1.46,2.49-1.91,1.07-.45,2.32-.68,3.72-.68,1.23,0,2.44.18,3.64.54,1.2.36,2.27.85,3.21,1.46l-1.46,3.17c-.97-.6-1.97-1.06-2.99-1.38Z"></path><path class="cls-1" d="m207.35,42.87c-.91-.43-1.84-.65-2.78-.65-1.17,0-2.25.28-3.22.84s-1.74,1.33-2.3,2.32c-.56.98-.84,2.06-.84,3.24s.28,2.25.84,3.24c.56.98,1.33,1.76,2.3,2.33.97.57,2.05.85,3.22.85.9,0,1.81-.2,2.72-.6s1.72-.95,2.42-1.65l2.14,2.38c-.99,1.01-2.15,1.81-3.47,2.4-1.32.59-2.65.88-4.01.88-1.82,0-3.49-.43-5.01-1.3-1.52-.87-2.71-2.04-3.57-3.53-.87-1.49-1.3-3.14-1.3-4.94s.44-3.45,1.33-4.93c.88-1.48,2.09-2.64,3.61-3.49s3.22-1.27,5.08-1.27c1.35,0,2.68.27,3.98.81,1.3.54,2.41,1.29,3.33,2.25l-2.11,2.65c-.67-.78-1.46-1.38-2.37-1.81Z"></path><path class="cls-1" d="m226.7,58.17l-3.28-5.61c-.14.02-.37.03-.68.03h-4.28v5.58h-3.63v-18.96h7.91c2.45,0,4.35.57,5.69,1.71,1.34,1.14,2,2.74,2,4.82,0,1.48-.32,2.74-.96,3.79-.64,1.05-1.57,1.83-2.8,2.36l4.17,6.28h-4.14Zm-8.23-8.77h4.28c1.37,0,2.42-.3,3.14-.89.72-.6,1.08-1.48,1.08-2.65s-.36-2.02-1.08-2.6c-.72-.58-1.77-.87-3.14-.87h-4.28v7.01Z"></path><path class="cls-1" d="m234.42,39.22h3.63v18.96h-3.63v-18.96Z"></path><path class="cls-1" d="m255.91,40.49c1.16.85,1.75,2,1.75,3.47,0,1.05-.29,1.95-.88,2.69-.59.75-1.39,1.25-2.42,1.5,1.26.24,2.25.78,2.96,1.62.71.85,1.07,1.9,1.07,3.17,0,1.62-.63,2.9-1.88,3.83-1.26.93-2.97,1.39-5.13,1.39h-8.67v-18.96h8.42c2.02,0,3.61.42,4.78,1.27Zm-2.76,5.85c.53-.42.8-.99.8-1.73s-.27-1.28-.8-1.68c-.53-.4-1.27-.59-2.21-.57h-4.6v4.6h4.6c.94,0,1.67-.21,2.21-.62Zm.5,8.04c.65-.45.97-1.08.97-1.9s-.32-1.39-.97-1.83c-.65-.44-1.55-.65-2.71-.64h-4.6v5.01h4.6c1.15.02,2.06-.2,2.71-.65Z"></path><path class="cls-1" d="m275.93,58.17l-1.68-4.01h-9.26l-1.68,4.01h-3.76l8.31-18.96h3.76l8.21,18.96h-3.9Zm-9.64-7.12h6.66l-3.3-7.96-3.36,7.96Z"></path><path class="cls-1" d="m295.35,39.22h3.52v18.96h-3.44l-9.75-13.05v13.05h-3.55v-18.96h3.44l9.78,13.08v-13.08Z"></path><path class="cls-1" d="m317.27,40.25c1.54.85,2.76,2.01,3.64,3.49.88,1.48,1.33,3.12,1.33,4.93s-.44,3.45-1.33,4.94c-.88,1.49-2.1,2.67-3.64,3.53-1.54.87-3.25,1.3-5.13,1.3s-3.59-.43-5.13-1.3c-1.54-.87-2.76-2.04-3.64-3.53-.88-1.49-1.33-3.14-1.33-4.94s.44-3.45,1.33-4.93c.88-1.48,2.1-2.64,3.64-3.49,1.54-.85,3.25-1.27,5.13-1.27s3.59.42,5.13,1.27Zm-8.3,2.83c-.99.57-1.78,1.35-2.36,2.33-.58.98-.87,2.07-.87,3.26s.29,2.28.88,3.28c.59.99,1.37,1.78,2.36,2.36.98.58,2.05.87,3.21.87s2.19-.29,3.17-.87c.97-.58,1.75-1.36,2.32-2.36.57-.99.85-2.08.85-3.28s-.28-2.28-.85-3.26c-.57-.98-1.34-1.76-2.32-2.33s-2.03-.85-3.17-.85-2.23.28-3.22.85Z"></path><path class="cls-1" d="m334.36,42.71c-1.02-.33-1.92-.49-2.69-.49-.87,0-1.55.16-2.06.49-.51.32-.76.78-.76,1.35,0,.52.18.96.53,1.31s.79.64,1.33.87c.53.23,1.26.47,2.18.74,1.28.38,2.33.76,3.16,1.14.82.38,1.52.94,2.1,1.68.58.74.87,1.72.87,2.92s-.31,2.16-.93,3.02-1.48,1.51-2.57,1.96c-1.09.45-2.34.68-3.75.68-1.48,0-2.93-.27-4.33-.83s-2.64-1.29-3.68-2.21l1.52-3.09c.96.88,2.03,1.58,3.22,2.08s2.3.76,3.33.76,1.81-.19,2.38-.58c.58-.39.87-.92.87-1.58,0-.54-.18-.99-.53-1.34-.35-.35-.8-.64-1.34-.85-.54-.22-1.28-.46-2.22-.73-1.28-.38-2.33-.75-3.14-1.11-.81-.36-1.51-.91-2.08-1.64-.58-.73-.87-1.69-.87-2.88,0-1.1.29-2.06.88-2.88.59-.82,1.42-1.46,2.49-1.91,1.07-.45,2.32-.68,3.72-.68,1.23,0,2.44.18,3.64.54,1.2.36,2.27.85,3.21,1.46l-1.46,3.17c-.97-.6-1.97-1.06-2.99-1.38Z"></path><path class="cls-1" d="m124.54,75.21c-1.02-.33-1.92-.49-2.69-.49-.87,0-1.55.16-2.06.49-.51.32-.76.78-.76,1.35,0,.52.18.96.53,1.31s.79.64,1.33.87c.53.23,1.26.47,2.18.74,1.28.38,2.33.76,3.16,1.14.82.38,1.52.94,2.1,1.68.58.74.87,1.72.87,2.92s-.31,2.16-.93,3.02-1.48,1.51-2.57,1.96c-1.09.45-2.34.68-3.75.68-1.48,0-2.93-.27-4.33-.83s-2.64-1.29-3.68-2.21l1.52-3.09c.96.88,2.03,1.58,3.22,2.08s2.3.76,3.33.76,1.81-.19,2.38-.58c.58-.39.87-.92.87-1.58,0-.54-.18-.99-.53-1.34-.35-.35-.8-.64-1.34-.85-.54-.22-1.28-.46-2.22-.73-1.28-.38-2.33-.75-3.14-1.11-.81-.36-1.51-.91-2.08-1.64-.58-.73-.87-1.69-.87-2.88,0-1.1.29-2.06.88-2.88.59-.82,1.42-1.46,2.49-1.91,1.07-.45,2.32-.68,3.72-.68,1.23,0,2.44.18,3.64.54,1.2.36,2.27.85,3.21,1.46l-1.46,3.17c-.97-.6-1.97-1.06-2.99-1.38Z"></path><path class="cls-1" d="m146.52,90.67l-1.68-4.01h-9.26l-1.68,4.01h-3.76l8.31-18.96h3.76l8.21,18.96h-3.9Zm-9.64-7.12h6.66l-3.3-7.96-3.36,7.96Z"></path><path class="cls-1" d="m152.72,71.71h3.63v15.68h8.18v3.28h-11.81v-18.96Z"></path><path class="cls-1" d="m165.26,71.71h15.46v3.22h-5.9v15.73h-3.66v-15.73h-5.9v-3.22Z"></path><path class="cls-1" d="m195.4,90.67l-1.68-4.01h-9.26l-1.68,4.01h-3.76l8.31-18.96h3.76l8.21,18.96h-3.9Zm-9.64-7.12h6.66l-3.3-7.96-3.36,7.96Z"></path></g><g><path class="cls-1" d="m.06,49.38C.02,22.63,21.7.41,49.05.42c27.29,0,49,22.17,48.98,49.04-.03,26.85-21.78,48.95-49.04,48.92C21.67,98.35,0,76.14.06,49.38Zm48.97,47.24c26.06.03,47.21-21.14,47.24-47.17.03-25.99-21.03-47.25-47.17-47.29C23.15,2.13,1.82,23.11,1.81,49.38c0,26.34,21.38,47.26,47.22,47.23h0Z"></path><path class="cls-1" d="m20.64,79.56c.05-.32.07-.56.1-.81.1-.78.26-1.54.54-2.28.18-.5.42-.97.72-1.4.48-.68,1.09-1.16,1.92-1.33.27-.06.44-.19.59-.44,1.17-2.02,2.35-4.02,3.53-6.04.15-.25.26-.51.37-.77.88-2.14,1.79-4.27,2.79-6.35.59-1.21,1.21-2.39,1.88-3.55.07-.11.12-.24.2-.37-.43-.27-.89-.46-1.33-.69s-.89-.44-1.33-.66-.89-.45-1.33-.66c-.44-.23-.89-.44-1.33-.66-.43-.21-.86-.43-1.3-.64-.44-.23-.89-.45-1.33-.66-.44-.23-.89-.44-1.33-.66s-.89-.44-1.31-.66c-.03-.14.06-.15.11-.18.38-.2.78-.39,1.16-.6,5.13-2.63,10.25-5.24,15.38-7.86.15-.08.28-.16.44-.25-.06-.19-.2-.29-.3-.41-1.16-1.26-2.33-2.51-3.5-3.77-1.77-1.9-3.54-3.82-5.32-5.72-.11-.11-.2-.26-.37-.34-.43.37-.79.8-1.17,1.19-.39.39-.78.8-1.16,1.21s-.77.8-1.16,1.21c-.38.41-.77.8-1.15,1.19-.36-.3-1.87-1.81-2.11-2.12.62-.62,1.25-1.25,1.88-1.88-.2-.33-.5-.54-.73-.8-.25-.26-.51-.51-.78-.78-.09.07-.18.11-.26.18-.45.41-.89.8-1.34,1.21-.11.1-.23.19-.33.28h-.07s-.03-.01-.03-.02c-.56-.56-1.13-1.13-1.7-1.69-.05-.05-.08-.09-.14-.16.06-.07.1-.15.16-.2.46-.47.94-.94,1.41-1.41.1-.1.2-.21.29-.32-.18-.3-1.15-1.43-1.53-1.76-.28.2-.48.48-.72.73s-.47.51-.7.77c-.24.25-.47.51-.72.78-.78-.78-1.52-1.53-2.29-2.3.32-.36.66-.65.98-.97.32-.3.63-.61.95-.91.33-.32.65-.63.98-.94.32-.3.63-.6.95-.91.32-.32.66-.61.98-.97-.17-.24-.38-.41-.56-.6l-.57-.57-.54-.54-.59-.59c.03-.07.05-.12.09-.16l2.07-2.07s.05-.03.1-.07c.07.06.16.1.23.17.5.51.99,1,1.49,1.51,6.26,6.39,12.54,12.78,18.8,19.16.12.12.26.25.38.38.17-.08.2-.24.27-.36.69-1.37,1.37-2.74,2.06-4.11,1.52-3.05,3.04-6.11,4.57-9.16.16-.32.25-.63.23-.99-.03-.45-.02-.9-.05-1.35,0-.15,0-.3-.08-.47-.9-.02-1.81,0-2.75-.01-.01-.14-.03-.24-.03-.34v-2.21c.01-.19.08-.28.27-.29.24-.02.48-.02.72,0,.25.02.33.15.33.39v.9c0,.11.01.24.02.37.48.06.94.03,1.42.02.01-.11.03-.19.03-.28,0-.35-.02-.69-.02-1.04,0-.25-.07-.45-.25-.65-.51-.57-.99-1.17-1.48-1.77-.07-.08-.15-.16-.19-.25-.03-.08-.06-.17-.05-.25,0-.09.05-.17.08-.26.88-2.83,1.76-5.66,2.65-8.48.03-.09.07-.19.11-.29.2.35,2.86,7.8,3.28,9.17-.07.08-.14.18-.21.26-.6.65-1.21,1.31-1.81,1.95-.19.19-.29.41-.3.68-.01.38-.05.78-.08,1.16.32.09,1.26.1,1.84.03.01-.09.05-.19.05-.29v-1.08c0-.16.07-.25.21-.3.29-.11.59-.11.88,0,.14.05.23.15.23.3v2.16c0,.27-.11.38-.38.38h-2.39c-.16,0-.33,0-.5.01-.08.18-.06.35-.08.51-.02.17-.03.33-.06.5-.02.32-.05.63-.08.95-.03.26.02.5.14.73,1.17,2.38,2.32,4.75,3.48,7.13.74,1.53,1.49,3.05,2.23,4.59.08.16.16.32.26.5.1-.03.19-.06.27-.09,2.57-1.17,5.14-2.34,7.64-3.68,2.16-1.16,4.26-2.43,6.21-3.92,2.99-2.26,5.52-4.97,7.61-8.08.12-.19.24-.38.33-.6.25-.56.51-1.13.68-1.72.01-.06.05-.11.08-.16.11,0,.11.09.11.16.05.39.08.78.11,1.17.06.48-.05.96-.11,1.44-.2,1.52-.5,3.03-.92,4.51-1.13,3.91-3.17,7.29-6.01,10.2-1.67,1.7-3.52,3.2-5.46,4.56-.83.59-1.69,1.15-2.55,1.7-.41.26-.85.46-1.26.69-.16.09-.32.17-.48.26.02.16.16.18.26.23,1.19.59,2.38,1.16,3.57,1.74,3.24,1.58,6.49,3.14,9.75,4.72.14.07.27.14.39.2-.02.17-.16.18-.26.23-1.14.57-2.29,1.14-3.44,1.7-3.64,1.8-7.28,3.61-10.91,5.41-.15.07-.29.15-.45.24.09.11.16.19.23.26,2.11,2.14,7.57,7.48,7.95,7.76.1-.09.12-.23.16-.35.38-1.09,1.04-1.99,1.99-2.67,3.18-2.23,7.66-.54,8.43,3.44.27,1.41-.02,2.72-.79,3.93-.08.12-.17.25-.25.37.08.17.24.2.36.28,1.17.73,1.97,1.76,2.37,3.08.91,3.03-.99,6.32-4.3,6.85-2.61.43-4.7-.99-5.66-2.84-.07-.14-.14-.27-.19-.38-.16-.06-.25.06-.34.11-.55.35-1.15.59-1.79.72-2.99.61-5.67-1.28-6.33-3.97-.77-3.06,1.25-6.07,4.23-6.61.1-.02.19-.07.36-.12-3.68-1.54-7.3-3.05-10.93-4.56-.17.1-.2.27-.26.42-.81,1.87-1.62,3.75-2.44,5.62-1.48,3.39-2.94,6.78-4.42,10.19-.06.14-.12.27-.19.43-.15-.11-.18-.26-.24-.39-1.18-2.65-2.35-5.31-3.53-7.95-1.68-3.8-3.36-7.59-5.05-11.38-.07-.15-.1-.32-.26-.44-2.37,1.95-4.73,3.9-7.08,5.84q-.44-.16-.88,0c-.47.16-.92.37-1.33.64-.27.18-.55.37-.8.57-1.71,1.42-3.02,3.14-3.93,5.16-.32.7-.5,1.45-.63,2.21-.06.29-.14.59-.17.89-.03.23-.14.38-.32.52-1.04.79-2.07,1.6-3.11,2.39-.44.34-.88.68-1.33,1.01-.08.06-.17.1-.3.19Zm29.8-27.92c-.16.12-.28.21-.39.32-.56.48-.48.27-.48,1.01v25.99s.03.1.06.16c.05-.05.07-.07.08-.09,2.67-6.75,5.35-13.5,8.02-20.25v-.05s0-.03-.02-.09c-2.4-2.31-4.82-4.64-7.28-7.01h.02Zm10.97-7.14c-.11.05-.19.08-.27.12-1.27.68-2.56,1.34-3.82,2.04-2.03,1.1-3.88,2.48-5.64,3.94-.07.06-.2.09-.12.26h22.05c.06,0,.12,0,.14-.12-4.1-2.07-8.21-4.16-12.31-6.24h-.01Zm-12.25-17.09c-.27.36-7.79,14.88-7.92,15.26.32.41,2.23,2.34,2.49,2.52.03,0,.07,0,.09-.02,1.74-1.27,3.52-2.48,5.32-3.64.01,0,.02-.02.02-.03s.01-.02.05-.08v-13.76c0-.06-.02-.11-.05-.24h0Zm-11.89,23.47c-.39-.05-11.8-.07-12.35-.03-.02,0-.03.03-.06.07.03.03.06.07.09.08,2.92,1.43,5.82,2.85,8.74,4.28.03.02.09.01.17.02.26-.37.52-.75.78-1.14.26-.37.53-.73.8-1.09.28-.37.57-.73.88-1.09.29-.36.6-.7.95-1.1h0Zm39.44,16.93c.03-.82-.61-1.86-1.85-1.86-1.03,0-1.81.79-1.84,1.84-.02,1,.81,1.85,1.81,1.86,1.04.01,1.87-.8,1.88-1.84h-.01Zm-6.39,5.86c.03-.86-.64-1.83-1.81-1.85-1.19-.01-1.87.98-1.87,1.85,0,1,.82,1.84,1.83,1.85.98.01,1.88-.79,1.86-1.85Zm8.21,2.32c.02-.85-.65-1.83-1.84-1.83s-1.86.97-1.85,1.87c.01,1,.85,1.83,1.85,1.83s1.87-.82,1.84-1.87Zm-24.13-35.52v-.23c-.02-.19-.05-.39-.1-.57-.09-.28-.32-.32-.51-.09-.1.12-.2.27-.27.42-.42.9-.61,1.86-.57,2.85,0,.16.05.33.09.48.09.28.33.33.51.09.14-.17.26-.37.34-.57.33-.75.47-1.54.51-2.37h.01Zm-3.63,3.43c0,.17-.01.34,0,.5.02.15.07.29.12.43.07.14.23.17.34.08.09-.08.18-.17.24-.26.1-.18.2-.37.28-.56.27-.69.41-1.42.44-2.15.01-.24-.02-.48-.06-.72-.01-.1-.07-.2-.12-.28-.06-.09-.19-.12-.28-.07s-.17.12-.23.21c-.11.18-.21.36-.29.55-.29.73-.45,1.5-.45,2.29h.01Zm-4.01,2.51c0,.19.01.39.03.59,0,.1.05.2.08.3.1.24.29.28.45.1.15-.18.28-.38.38-.61.26-.6.42-1.22.47-1.86.03-.34.02-.69,0-1.03,0-.14-.06-.26-.11-.38-.08-.17-.24-.2-.37-.08-.1.09-.19.19-.26.3-.1.18-.19.37-.27.56-.25.68-.39,1.39-.42,2.11h.01Zm1.99-1.09c0,.09,0,.29.02.48,0,.1.03.2.08.3.1.26.3.32.47.1.15-.18.28-.39.37-.61.34-.78.5-1.6.51-2.44,0-.24-.03-.48-.1-.71-.08-.29-.32-.34-.5-.11-.16.2-.28.43-.38.65-.29.71-.45,1.45-.47,2.33Zm-2.64.69v-.36c0-.08,0-.15-.02-.23-.02-.11-.05-.24-.09-.35-.09-.21-.26-.25-.43-.09-.18.17-.29.38-.38.6-.34.8-.51,1.63-.52,2.49,0,.25.05.51.11.74.07.25.27.27.45.1.19-.18.3-.41.39-.64.29-.73.46-1.49.48-2.28h0Zm-8.59,13.41c-.46,0-.95.02-1.41.18-.16.06-.3.12-.44.23s-.14.29,0,.38c.15.1.32.19.48.24.69.19,1.39.24,2.1.15.27-.03.53-.09.79-.16.16-.05.29-.15.43-.24.1-.08.09-.23,0-.32-.14-.14-.29-.2-.47-.26-.47-.16-.97-.19-1.49-.18v-.02Zm-1.54,2.74c.21,0,.43.02.63,0,.32-.05.62-.11.92-.19.12-.03.24-.12.34-.2s.11-.24,0-.32c-.15-.1-.3-.21-.46-.26-.3-.08-.62-.14-.92-.18-.65-.08-1.3-.03-1.93.15-.17.05-.34.14-.48.23-.15.1-.14.27,0,.38.18.17.42.23.65.29.41.1.83.12,1.25.1h0Zm18.76-20.42v.26c.03.32.24.43.5.24.17-.12.32-.28.44-.45.46-.61.75-1.3.96-2.03.05-.17.08-.35.09-.53,0-.14-.03-.27-.07-.39-.03-.09-.12-.14-.23-.11s-.2.07-.28.14c-.15.14-.28.27-.39.43-.46.65-.8,1.37-.96,2.16-.02.11-.05.24-.05.28h-.01Zm-10.71,5.5c0-.12-.01-.3-.03-.48,0-.07-.03-.15-.07-.21-.1-.25-.3-.29-.5-.09-.11.12-.21.26-.28.41-.39.78-.56,1.61-.59,2.48,0,.18.03.36.08.53.03.14.09.26.25.29.16.02.26-.07.34-.18.11-.16.23-.33.3-.5.3-.69.47-1.42.5-2.23h0Zm17.11-8.96s0,.1.02.21c.05.2.24.3.42.18.17-.11.33-.26.46-.43.41-.53.69-1.13.87-1.77.06-.2.09-.41.12-.62.03-.17,0-.33-.07-.48-.06-.11-.19-.17-.3-.1s-.24.14-.33.24c-.66.75-1.06,1.63-1.18,2.63v.15h-.01Zm-19.14,11.59c-.03-.41-.05-.81-.16-1.21-.06-.18-.12-.37-.21-.54-.14-.24-.36-.24-.51-.01-.08.12-.15.26-.18.41-.07.27-.12.55-.15.83-.07.57-.01,1.14.12,1.69.03.14.08.26.14.38.07.14.15.28.32.28s.26-.12.33-.27.14-.3.16-.46c.07-.37.1-.74.15-1.12h0Zm23.51-15.68c-.01-.11-.01-.23-.05-.33-.06-.21-.24-.29-.42-.17-.16.11-.32.24-.43.39-.53.69-.87,1.48-1,2.33-.02.16,0,.33.02.48.05.2.2.25.38.17.21-.1.36-.27.5-.45.44-.59.73-1.24.9-1.95.03-.16.06-.33.09-.47h0Zm2.73-1.35c0-.07-.01-.19-.05-.3-.05-.16-.2-.23-.36-.16-.19.09-.34.25-.47.41-.48.63-.8,1.34-.97,2.11-.06.24-.08.47-.01.71.05.17.19.26.35.18.14-.07.26-.16.36-.26.61-.71.98-1.53,1.14-2.46,0-.06,0-.12.02-.24h-.01Zm-27.18,24.27c.43.01.9-.01,1.36-.15.16-.05.32-.11.45-.19.17-.1.17-.29-.01-.39-.14-.08-.29-.16-.45-.19-.29-.07-.59-.11-.89-.15-.64-.07-1.28-.02-1.92.14-.16.05-.32.11-.45.19-.17.1-.17.28.01.39.12.08.27.14.41.18.46.15.95.18,1.48.17h.01Zm1.64-1.69c.41-.05.81-.07,1.21-.14.2-.03.41-.12.59-.21.18-.09.19-.28.02-.39-.12-.08-.26-.16-.41-.19-.96-.25-1.93-.27-2.9-.03-.15.03-.28.09-.42.17-.18.1-.19.28-.02.39.14.09.29.15.45.2.47.15.97.19,1.48.21h0Zm4.33-3.55h.36c.29-.03.6-.05.89-.1.19-.03.37-.11.54-.2.18-.1.19-.29.02-.39-.15-.09-.32-.17-.5-.21-.32-.07-.65-.12-.98-.16-.62-.06-1.23-.01-1.83.14-.15.03-.28.09-.42.17-.18.1-.19.28-.02.39.12.08.26.15.41.19.5.16,1,.19,1.51.18h.01Zm-2.35,1.89c.48.01.98-.03,1.45-.18.14-.05.27-.12.39-.2.11-.08.11-.24,0-.3-.15-.09-.32-.18-.48-.23-.91-.25-1.84-.25-2.76-.06-.15.03-.28.09-.43.15-.11.05-.21.11-.21.26,0,.12.09.19.18.24.12.06.25.11.37.15.48.14.97.19,1.48.18h.01Zm9.68-7.31h.36c.29-.03.6-.06.89-.1.17-.03.35-.1.51-.18.25-.12.25-.33,0-.47-.14-.07-.27-.14-.42-.17-.3-.07-.62-.12-.94-.16-.64-.07-1.28-.02-1.92.15-.15.03-.28.1-.41.18-.16.1-.15.27,0,.36.14.09.29.15.45.2.47.15.97.18,1.46.17v.02Zm2.54-1.6c.41-.05.8-.08,1.21-.14.23-.03.44-.1.63-.23.15-.1.16-.28,0-.37-.15-.09-.32-.17-.48-.21-.72-.19-1.45-.23-2.19-.14-.24.03-.47.08-.71.14-.12.03-.25.09-.36.17-.16.1-.16.27,0,.37.14.09.29.16.44.2.47.15.97.19,1.46.21h0Zm-4.88,3.45v-.05c.19,0,.39.01.59,0,.25-.02.51-.06.75-.11.17-.05.34-.12.48-.21.14-.08.12-.24,0-.34-.17-.14-.37-.2-.57-.25-.57-.12-1.15-.19-1.75-.15-.34.03-.69.08-1.03.15-.16.03-.3.11-.45.2-.14.08-.12.24,0,.34.19.17.43.23.65.27.43.07.86.11,1.3.16h.02Zm-12.74,10.57v-.03h.18c.42,0,.83-.03,1.25-.15.12-.03.26-.09.37-.15.23-.12.24-.33.02-.45-.14-.08-.29-.15-.45-.18-.35-.07-.71-.12-1.07-.16-.57-.05-1.14,0-1.69.15-.16.03-.32.1-.45.18-.19.11-.19.32.01.43.18.09.38.18.59.21.42.07.83.1,1.25.15h-.01Zm9.97-8.86c.62-.02,1.06-.01,1.48-.14.16-.05.32-.09.46-.17.23-.12.24-.33.02-.45-.15-.08-.29-.15-.45-.19-.91-.21-1.84-.24-2.76-.02-.15.03-.28.09-.42.16-.23.12-.24.33-.02.45.18.1.38.18.59.21.43.08.86.11,1.1.14h0Zm9.44-11.95c0-.09,0-.17-.01-.24-.05-.3-.23-.39-.46-.2-.14.11-.26.25-.36.39-.47.69-.78,1.45-.9,2.28-.02.16-.01.33.02.48.05.21.24.29.41.15.16-.14.3-.28.43-.45.42-.6.68-1.26.83-1.97.03-.15.03-.29.06-.43h-.01Zm.28,1.32c0,.09.01.21.03.33.03.17.2.25.35.16.14-.09.26-.2.37-.33.25-.3.43-.65.59-1.01.18-.42.32-.85.39-1.3.03-.2.06-.42-.02-.62-.07-.17-.2-.21-.36-.12-.2.11-.34.29-.46.48-.41.61-.68,1.27-.83,1.98-.03.14-.03.27-.06.43Zm-20.78,14.39c-.05-.32-.07-.63-.14-.94-.05-.2-.14-.41-.24-.57-.14-.23-.37-.23-.51-.01-.1.16-.19.35-.24.53-.15.57-.16,1.16-.06,1.75.03.18.08.35.14.52.05.11.1.21.18.3.12.16.3.16.43,0,.09-.11.17-.25.21-.38.15-.38.18-.79.2-1.19h.01Zm-3.2,2.86c.06.37.11.74.19,1.12.03.16.12.3.21.44.12.17.34.17.46,0,.09-.14.17-.28.23-.44.14-.42.18-.86.15-1.28-.02-.33-.08-.65-.16-.97-.03-.16-.14-.3-.23-.43-.12-.16-.3-.16-.42,0-.1.15-.2.3-.25.47-.08.36-.12.73-.19,1.1h0Zm3.83-4.66h.02c.01.21.01.42.03.63.02.16.05.33.1.48.06.17.14.34.24.47.12.17.33.16.45,0,.08-.1.15-.23.19-.35.25-.8.25-1.59,0-2.39-.05-.12-.11-.25-.19-.36-.14-.19-.36-.19-.48.01-.1.16-.19.34-.24.53-.07.32-.1.65-.15.98h.02Zm-4.29,6.23c-.06-.35-.1-.69-.16-1.03-.02-.11-.07-.23-.12-.34-.08-.15-.16-.3-.36-.29-.18,0-.26.14-.33.27-.05.08-.08.16-.1.25-.23.77-.23,1.54,0,2.31.03.11.09.23.15.33.18.28.42.28.59-.01.08-.12.15-.27.17-.42.07-.35.11-.71.16-1.06h.01Zm25.33-14.7c.39,0,.79,0,1.16-.11.12-.03.25-.1.36-.17s.12-.23.02-.3c-.12-.09-.25-.17-.39-.21-.91-.27-1.84-.32-2.76-.12-.11.02-.23.08-.34.14-.19.1-.2.28-.02.39.14.09.29.16.45.2.5.16,1,.19,1.51.19h.01Zm3.92-3.85c-.23,0-.45,0-.68.03-.19.02-.38.08-.56.15-.19.08-.2.27-.02.38.14.09.29.16.45.2.78.23,1.57.29,2.35.17.16-.02.32-.1.45-.18.1-.06.1-.18.02-.27-.14-.15-.33-.21-.51-.27-.5-.16-.99-.21-1.51-.23h0Zm-1.41,2.33c.23,0,.45-.01.68-.03.21-.02.42-.07.59-.19.09-.07.11-.21.02-.27-.14-.09-.27-.19-.43-.25-.81-.26-1.64-.33-2.49-.19-.14.02-.26.08-.37.14-.14.07-.16.25-.02.33.16.1.34.19.52.25.48.16.99.21,1.51.21h0Zm4.99-5.07c-.17.01-.42.03-.65.07-.11.01-.24.06-.34.11-.19.09-.2.27-.01.38.11.07.24.12.37.17.73.23,1.48.28,2.23.16.14-.02.26-.08.37-.14s.12-.23.01-.3c-.12-.08-.26-.16-.39-.2-.48-.18-1-.2-1.58-.24h-.01Zm-3.12,1.71c.15.3.39.36.62.43.61.18,1.24.23,1.87.17.19-.01.38-.08.56-.14.1-.03.19-.09.19-.25-.1-.21-.33-.27-.54-.34-.65-.2-1.32-.24-1.99-.18-.15.01-.29.06-.44.1-.09.03-.17.11-.26.19h-.01Zm5.72-2.33c.37-.05.73-.08,1.08-.14.18-.03.35-.1.51-.17.1-.03.19-.1.19-.23,0-.15-.12-.19-.24-.24-.08-.03-.17-.07-.26-.08-.75-.14-1.5-.1-2.23.09-.12.03-.25.1-.36.17-.16.1-.14.27.03.35.09.05.19.09.29.11.33.05.65.09.97.12h.01Zm-.41-1.57c.17.16.34.16.53.12.5-.07.97-.23,1.42-.44.27-.14.53-.29.77-.46.11-.07.19-.19.26-.3.06-.08,0-.18-.08-.23-.15-.07-.29-.06-.44-.03-.74.11-1.42.39-2.04.8-.12.08-.24.19-.33.3-.06.06-.06.16-.08.24h-.01Z"></path></g></svg>